<svg version="1.2" xmlns="http://www.w3.org/2000/svg" viewBox="0 0 228 36" width="228" height="36">
	<title>logo</title>
	<style>
		.s0 { fill: #ffffff } 
		.s1 { fill: #39afd1 } 
	</style>
	<path id="Shape 1" fill-rule="evenodd" class="s0" d="m18 36c-9.95 0-18-8.09-18-18.09 0-10.01 8.05-18.09 18-18.09 9.95 0 18 8.08 18 18.09 0 10-8.05 18.09-18 18.09z"/>
	<path id="Shape 1 copy" fill-rule="evenodd" class="s1" d="m42 36c-9.95 0-18-8.09-18-18.09 0-10.01 8.05-18.09 18-18.09 9.95 0 18 8.08 18 18.09 0 10-8.05 18.09-18 18.09z"/>
	<path id="INTELBAORD" fill-rule="evenodd" class="s0" d="m69.77 26h-3.61v-17.57h3.61zm18.78 0h-3.8l-7.09-11.6v11.6h-3.5v-17.56h3.83l7.09 11.54v-11.54h3.47zm11.64 0h-3.61v-14.64h-5.39l0.28-2.93h14.47l-0.27 2.93h-5.48zm19.83 0h-12.86v-17.57h13.14l-0.28 2.93h-9.25v4.07h7.2v2.93h-7.2v4.68h9.53zm15.26 0h-12.12v-17.57h3.58v14.62h8.81zm9.51 0h-7.63v-17.57h7.52q1.95 0 3.26 0.19 1.31 0.16 2.08 0.66 0.79 0.46 1.12 1.34 0.33 0.87 0.33 2.27 0 1.04-0.14 1.72-0.13 0.69-0.43 1.18-0.28 0.46-0.72 0.79-0.41 0.33-0.95 0.61 0.54 0.27 0.98 0.6 0.47 0.3 0.77 0.79 0.33 0.47 0.49 1.18 0.16 0.68 0.16 1.69 0 1.4-0.35 2.3-0.33 0.88-1.12 1.37-0.8 0.49-2.11 0.68-1.31 0.2-3.26 0.2zm-4.57-2.93h4.63q0.85 0 1.45-0.03 0.6-0.03 0.98-0.16 0.39-0.14 0.55-0.47 0.16-0.33 0.16-0.96 0-1.06-0.16-1.64-0.14-0.57-0.49-0.82-0.33-0.27-0.88-0.3-0.52-0.05-1.28-0.05h-4.96zm0-7.37h4.96q0.74 0 1.26-0.05 0.51-0.08 0.82-0.33 0.3-0.27 0.43-0.82 0.14-0.55 0.14-1.53 0-0.58-0.16-0.88-0.17-0.33-0.52-0.49-0.36-0.16-0.96-0.19-0.6-0.06-1.45-0.06h-4.52zm20.75-7.27h4l6.21 17.56h-3.94l-1.53-4.95h-5.5l-1.51 4.95h-3.94zm1.43 5.5l-1.4 4.57h3.94l-1.39-4.57-0.5-2.76h-0.16zm10.16 3.26q0-2.96 0.68-4.74 0.71-1.8 1.89-2.76 1.2-0.99 2.79-1.29 1.62-0.33 3.45-0.33 1.83 0 3.42 0.33 1.61 0.3 2.79 1.29 1.2 0.96 1.89 2.76 0.71 1.78 0.71 4.74 0 2.95-0.71 4.76-0.69 1.77-1.89 2.76-1.18 0.96-2.79 1.29-1.59 0.3-3.42 0.3-1.83 0-3.45-0.3-1.59-0.33-2.79-1.29-1.18-0.99-1.89-2.76-0.68-1.81-0.68-4.76zm8.81-6.22q-1.04 0-1.97 0.11-0.93 0.09-1.64 0.69-0.71 0.57-1.12 1.83-0.42 1.26-0.42 3.59 0 2.32 0.42 3.58 0.41 1.26 1.12 1.86 0.71 0.57 1.64 0.68 0.93 0.09 1.97 0.09 1.01 0 1.94-0.09 0.93-0.11 1.64-0.68 0.71-0.6 1.13-1.86 0.43-1.26 0.43-3.58 0-2.33-0.43-3.59-0.42-1.26-1.15-1.83-0.72-0.6-1.65-0.69-0.93-0.11-1.91-0.11zm27.54 15.03h-4.13l-4.65-6.32h-2.36v6.32h-3.61v-17.57h7.11q1.95 0 3.26 0.22 1.31 0.19 2.11 0.79 0.79 0.6 1.12 1.73 0.36 1.09 0.36 2.9 0 1.45-0.22 2.43-0.2 0.99-0.69 1.62-0.46 0.62-1.26 0.98-0.76 0.33-1.91 0.47zm-11.14-9.25h3.56q0.85 0 1.42-0.06 0.6-0.05 0.96-0.33 0.38-0.27 0.55-0.79 0.16-0.55 0.16-1.5 0-0.99-0.16-1.54-0.17-0.54-0.55-0.79-0.36-0.27-0.96-0.33-0.57-0.05-1.42-0.05h-3.56zm20.96 9.25h-6.57v-17.57h6.29q2 0 3.64 0.27 1.64 0.25 2.79 1.15 1.15 0.9 1.78 2.63 0.63 1.72 0.63 4.62 0 2.93-0.57 4.71-0.55 1.75-1.65 2.68-1.09 0.93-2.68 1.23-1.58 0.28-3.66 0.28zm-2.96-2.96h2.68q1.45 0 2.44-0.16 1.01-0.2 1.61-0.8 0.6-0.63 0.85-1.8 0.27-1.21 0.27-3.21 0-2.07-0.41-3.22-0.38-1.18-1.09-1.73-0.68-0.55-1.64-0.65-0.96-0.11-2.08-0.11h-2.63z"/>
</svg>